<?xml version="1.0" encoding="utf-8"?>
<!-- Generator: Adobe Illustrator 19.1.0, SVG Export Plug-In . SVG Version: 6.00 Build 0)  -->
<svg version="1.1" id="Layer_1" xmlns="http://www.w3.org/2000/svg" xmlns:xlink="http://www.w3.org/1999/xlink" x="0px" y="0px"
	 viewBox="80.8 77.8 645.3 645.3" style="enable-background:new 80.8 77.8 645.3 645.3;" xml:space="preserve">
<style type="text/css">
	.st0{fill:#111111;}
	.st1{fill:#F4B300;}
</style>
<circle class="st0" cx="403.5" cy="400.4" r="322.7"/>
<g>
	<path class="st1" d="M581.9,396.9c0,99.7-78.8,179.1-178.5,179.1c-99.2,0-179.1-79.3-179.1-179.1c0-98.6,79.9-178,179.1-178
		C503.1,218.9,581.9,298.3,581.9,396.9z M316.8,442.6c-2.2-13.8-3.3-29.2-3.3-44.1c0-11,0.5-19.8,1.7-30.3
		c-25.3-5-40.2-8.8-51.8-13.8c-3.9,13.2-6.1,28.1-6.1,42.4c0,7.2,0,14.3,1.1,20.4C265.6,425.6,283.8,436.6,316.8,442.6z
		 M347.1,531.4c-12.7-17.6-20.9-40.2-26.4-66.7c-22-5-41.9-11-55.1-18.2c8.3,20.4,18.7,38.6,34.7,53.4
		C313.5,514.3,330.1,524.2,347.1,531.4z M271.7,335.2c5,4.4,13.2,5,45.7,13.8c6.1-35.3,16.5-64.5,33.1-86.5
		c-18.7,8.8-35.3,16.5-50.1,32.5C287.6,306.5,278.3,320.9,271.7,335.2z M336.7,446.5c18.7,3.3,36.9,5,55.7,5.5v-77.7
		c-19.8-0.5-39.7-1.7-58.4-3.9c0,9.9-0.6,18.2-0.6,28.1C333.4,414.5,334.5,431.6,336.7,446.5z M336.7,351.7
		c18.2,1.7,36.9,2.8,55.7,3.3V252.6c0,0-0.6,0-1.1,0C366.4,262.5,345.5,301,336.7,351.7z M392.3,542.4v-71.1
		c-17.1-0.6-34.2-1.7-50.7-3.3c3.3,14.3,8.3,27,14.9,38.6C364.8,526.4,377.4,542.4,392.3,542.4z M413.3,252.6V355
		c19.3-0.5,37.5-1.7,56.2-3.3c-7.2-39.7-23.1-74.4-41.9-91.5C422.6,257,417.1,252.6,413.3,252.6z M468.9,447.1
		c2.8-14.9,3.3-32,3.3-48.5c0-9.9,0-18.2-0.6-27.6c-18.7,1.7-38,2.8-58.4,3.3V452C432.5,451.5,450.7,449.8,468.9,447.1z M464.5,468
		c-17.1,1.7-34.2,2.8-51.2,3.3v71.1C441.9,542.4,457.3,492.8,464.5,468z M455.7,261.9c16.5,21.5,27,51.8,32.5,87.6
		c29.8-5.5,41.9-10.5,46.3-13.8C519.1,301.6,489.9,274,455.7,261.9z M538.9,448.7c-14.3,6.6-33.1,12.1-53.4,16.5
		c-6.1,26.4-13.8,47.9-27,66.1c17.1-7.2,34.2-17.1,47.4-31.4C521.3,485.6,531.7,468,538.9,448.7z M492.1,398.6
		c0,14.9-1.1,30.9-2.8,44.6c57.3-9.4,59.5-22.6,59.5-46.3c0-13.8-2.2-28.7-6.6-41.9c-10.5,4.4-29.2,11-51.2,13.2
		C492.1,378.7,492.1,387.5,492.1,398.6z"/>
</g>
</svg>
