<?xml version="1.0" encoding="utf-8"?>
<!-- Generator: Adobe Illustrator 19.1.0, SVG Export Plug-In . SVG Version: 6.00 Build 0)  -->
<svg version="1.1" id="Layer_1" xmlns:sketch="http://www.bohemiancoding.com/sketch/ns"
	 xmlns="http://www.w3.org/2000/svg" xmlns:xlink="http://www.w3.org/1999/xlink" x="0px" y="0px" viewBox="-156 187 298 420"
	 enable-background="new -156 187 298 420" xml:space="preserve">
<title>Slice 1</title>
<description>Created with Sketch (http://www.bohemiancoding.com/sketch)</description>
<g id="Page_1">
	<g id="Layer_1_1_">
		<path id="Shape" fill="#131313" d="M77.164,202.681H52.476L78.15,230.54v13.261H25.268v-15.526h25.669l-25.669-27.86v-13.28
			h51.896V202.681L77.164,202.681z M14.786,202.681H-9.902l25.673,27.859v13.261h-52.882v-15.526h25.672l-25.672-27.86v-13.28
			h51.897V202.681L14.786,202.681z M-46.982,203.312h-26.64v24.313h26.64v16.176h-45.574v-56.666h45.574V203.312L-46.982,203.312z"
			/>
		<path id="Shape_1_" fill="#1572B6" d="M-128.858,573.29l-27.071-303.62h297.45l-27.096,303.571l-121.811,33.77L-128.858,573.29z"
			/>
		<path id="Shape_2_" fill="#33A9DC" d="M-7.202,581.199l98.427-27.288l23.157-259.415H-7.202V581.199z"/>
		<g id="Group" transform="translate(55.000000, 142.000000)">
			<path id="Shape_3_" fill="#FFFFFF" d="M-62.203,262.496h49.275l3.403-38.132h-52.678v-37.239h0.129h93.246l-0.893,9.991
				l-9.152,102.616h-83.33V262.496z"/>
			<path id="Shape_4_" fill="#EBEBEB" d="M-61.98,359.204l-0.163,0.046l-41.472-11.199l-2.652-29.698h-20.151h-17.228l5.216,58.467
				l76.278,21.176l0.172-0.048V359.204z"/>
			<path id="Shape_5_" fill="#FFFFFF" d="M-16.093,298.156l-4.484,49.87l-41.532,11.21v38.742L14.23,376.82l0.56-6.29l6.478-72.374
				H-16.093z"/>
			<path id="Shape_6_" fill="#EBEBEB" d="M-62.074,187.125v23.128v14.019v0.092h-89.828h-0.119l-0.747-8.37l-1.697-18.878
				l-0.89-9.991H-62.074z"/>
			<path id="Shape_7_" fill="#EBEBEB" d="M-62.203,262.5v23.129v14.017v0.092h-40.828h-0.119l-0.746-8.369l-1.698-18.878
				l-0.89-9.991H-62.203z"/>
		</g>
	</g>
</g>
</svg>
