<?xml version="1.0" encoding="utf-8"?>
<!-- Generator: Adobe Illustrator 19.1.0, SVG Export Plug-In . SVG Version: 6.00 Build 0)  -->
<svg version="1.1" id="Layer_1" xmlns="http://www.w3.org/2000/svg" xmlns:xlink="http://www.w3.org/1999/xlink" x="0px" y="0px"
	 viewBox="25.633 141 362.734 512" enable-background="new 25.633 141 362.734 512" xml:space="preserve">
<title>HTML5 Logo</title>
<polygon fill="#E44D26" points="58.644,611.877 25.633,241.62 388.367,241.62 355.321,611.819 206.778,653 "/>
<polygon fill="#F16529" points="207,621.523 327.03,588.246 355.27,271.894 207,271.894 "/>
<polygon fill="#EBEBEB" points="207,409.217 146.91,409.217 142.76,362.716 207,362.716 207,317.305 206.843,317.305 
	93.132,317.305 94.219,329.488 105.38,454.627 207,454.627 "/>
<polygon fill="#EBEBEB" points="207,527.153 206.801,527.206 156.227,513.55 152.994,477.333 128.419,477.333 107.409,477.333 
	113.771,548.634 206.791,574.457 207,574.399 "/>
<path d="M59.382,141h23.077v22.8h21.11V141h23.078v69.044H103.57v-23.12H82.46v23.12H59.383V141H59.382z"/>
<path d="M156.994,163.896h-20.316V141h63.72v22.896h-20.325v46.148h-23.078v-46.148H156.994z"/>
<path d="M210.511,141h24.063l14.802,24.26L264.163,141h24.072v69.044h-22.982v-34.222l-15.877,24.549h-0.397l-15.888-24.549v34.222
	h-22.58V141z"/>
<path d="M299.72,141h23.084v46.222h32.453v22.822H299.72V141z"/>
<polygon fill="#FFFFFF" points="206.843,409.217 206.843,454.627 262.761,454.627 257.49,513.521 206.843,527.191 206.843,574.435 
	299.937,548.634 300.62,540.962 311.291,421.411 312.399,409.217 300.162,409.217 "/>
<polygon fill="#FFFFFF" points="206.843,317.305 206.843,345.509 206.843,362.605 206.843,362.716 316.385,362.716 316.385,362.716 
	316.531,362.716 317.442,352.509 319.511,329.488 320.597,317.305 "/>
</svg>
