<?xml version="1.0" encoding="utf-8"?>
<!-- Generator: Adobe Illustrator 19.1.0, SVG Export Plug-In . SVG Version: 6.00 Build 0)  -->
<svg version="1.1" id="Calque_1" xmlns="http://www.w3.org/2000/svg" xmlns:xlink="http://www.w3.org/1999/xlink" x="0px" y="0px"
	 viewBox="-305 141 1024 512" enable-background="new -305 141 1024 512" xml:space="preserve">
<g>
	<path fill="#F89E1F" d="M719,601.792c0,28.27-22.925,51.198-51.198,51.198H258.218c-28.274,0-51.198-22.929-51.198-51.198V192.208
		c0-28.279,22.924-51.198,51.198-51.198h409.584c28.273,0,51.198,22.919,51.198,51.198V601.792L719,601.792z"/>
	<path fill="#FBAF34" d="M719,560.813c0,28.27-22.925,51.198-51.198,51.198H258.218c-28.274,0-51.198-22.929-51.198-51.198V192.208
		c0-28.279,22.924-51.198,51.198-51.198h409.584c28.273,0,51.198,22.919,51.198,51.198V560.813L719,560.813z"/>
	<g>
		<path fill="#FFFFFF" d="M475.794,468.728L464.3,431.109h-67.258l-12.939,37.619h-40.328l65.048-182.233h44.192l64.213,182.233
			H475.794z M430.521,327.383h-0.289l-23.295,72.457h46.318L430.521,327.383z"/>
		<path fill="#FFFFFF" d="M526.063,317.503v-33.208h35.693v33.208L526.063,317.503L526.063,317.503z M526.063,468.728V333.702
			h35.693v135.025h-35.693V468.728z"/>
	</g>
</g>
<g>
	<g>
		<path fill="#66A9D1" d="M207.98,602.792c0,28.279-22.925,51.198-51.198,51.198h-409.584c-28.274,0-51.198-22.919-51.198-51.198
			V193.208c0-28.269,22.924-51.198,51.198-51.198h409.584c28.273,0,51.198,22.929,51.198,51.198L207.98,602.792L207.98,602.792z"/>
	</g>
	<path fill="#7FB3E1" d="M207.98,561.813c0,28.279-22.925,51.198-51.198,51.198h-409.584c-28.274,0-51.198-22.919-51.198-51.198
		V193.208c0-28.269,22.924-51.198,51.198-51.198h409.584c28.273,0,51.198,22.929,51.198,51.198L207.98,561.813L207.98,561.813z"/>
	<g>
		<path fill="#FFFFFF" d="M-162.231,454.407V297.554h69.218c30.709,0,50.313,22.439,50.313,50.778
			c0,28.589-19.604,49.148-50.313,49.148h-36.398v56.927L-162.231,454.407L-162.231,454.407z M-98.238,370.781
			c18.908,0,26.713-9.68,26.713-23.389c0-12.99-7.805-22.689-26.713-22.689h-31.174v46.078H-98.238z"/>
		<path fill="#FFFFFF" d="M33.412,373.371c-1.44-10.63-7.545-15.35-20.784-15.35c-12.529,0-19.159,2.6-19.159,9.92
			c0,6.38,6.63,9.699,18.899,12.999c40.628,11.11,53.843,13.22,53.843,40.409c0,20.779-17.675,36.128-51.448,36.128
			c-33.334,0-54.828-15.819-55.333-40.408h31.679c0,10.88,9.689,17.249,23.404,17.249c11.569,0,21.249-3.529,21.249-11.079
			c0-8.52-6.13-11.35-18.639-14.18c-45.129-9.93-53.429-21.509-53.429-41.118c0-17.479,13.48-32.839,49.898-32.839
			c33.269,0,47.918,14.43,49.328,38.269L33.412,373.371L33.412,373.371z"/>
	</g>
</g>
</svg>
