<?xml version="1.0" encoding="utf-8"?>
<!-- Generator: Adobe Illustrator 19.1.0, SVG Export Plug-In . SVG Version: 6.00 Build 0)  -->
<svg version="1.1" id="Layer_1" xmlns="http://www.w3.org/2000/svg" xmlns:xlink="http://www.w3.org/1999/xlink" x="0px" y="0px"
	 viewBox="-266 362.5 78 69" enable-background="new -266 362.5 78 69" xml:space="preserve">
<path fill="#333F4F" d="M-194,362.5h-66c-3.299,0-6,2.699-6,6v45c0,3.301,2.701,6,6,6h66c3.301,0,6-2.699,6-6v-45
	C-188,365.2-190.699,362.5-194,362.5z M-194,408.5h-66v-40h66V408.5z M-213.5,425.5h-27c-1.66,0-3,1.341-3,3v3h33v-3
	C-210.5,426.84-211.84,425.5-213.5,425.5z M-239.009,394.5H-230v-12h-9.009v-6.729l-11.727,12.729l11.728,12.728V394.5H-239.009z
	 M-215.164,401.228l11.727-12.728l-11.727-12.729v6.729h-9.009v12h9.009V401.228z"/>
</svg>
