<?xml version="1.0" standalone="no"?>
<!DOCTYPE svg PUBLIC "-//W3C//DTD SVG 20010904//EN"
 "http://www.w3.org/TR/2001/REC-SVG-20010904/DTD/svg10.dtd">
<svg version="1.0" xmlns="http://www.w3.org/2000/svg"
 width="270.000000pt" height="270.000000pt" viewBox="0 0 270.000000 270.000000"
 preserveAspectRatio="xMidYMid meet">
<metadata>
Created by potrace 1.11, written by Peter Selinger 2001-2013
</metadata>
<g transform="translate(0.000000,270.000000) scale(0.100000,-0.100000)"
fill="#000000" stroke="none">
<path d="M0 1350 l0 -1350 1350 0 1350 0 0 1350 0 1350 -1350 0 -1350 0 0
-1350z m895 686 c83 -25 156 -75 197 -136 59 -87 68 -140 68 -405 0 -192 3
-234 16 -253 8 -12 22 -22 30 -22 11 0 14 -18 14 -90 l0 -90 -79 0 c-75 0 -81
2 -110 30 -22 23 -32 44 -37 80 -4 28 -9 50 -11 50 -3 0 -26 -21 -51 -46 -26
-25 -81 -62 -122 -82 -74 -36 -77 -37 -195 -37 -111 0 -124 2 -172 27 -100 53
-164 145 -171 248 -11 146 79 262 243 313 92 29 265 28 373 -1 l72 -20 0 57
c0 186 -123 284 -315 252 -67 -11 -203 -67 -235 -96 -14 -13 -20 -7 -48 50
l-32 65 38 23 c56 35 152 73 212 86 30 6 64 13 75 15 36 9 189 -3 240 -18z
m1157 13 c164 -35 294 -157 353 -332 51 -152 27 -359 -55 -487 -42 -66 -122
-137 -190 -169 -49 -23 -67 -26 -170 -26 -105 0 -120 2 -171 28 -58 28 -128
88 -167 142 l-21 30 -1 -302 0 -303 -100 0 -100 0 0 705 0 705 88 0 87 0 -3
-85 c-2 -47 0 -85 5 -85 4 0 27 21 49 48 97 111 250 162 396 131z"/>
<path d="M640 1526 c-133 -29 -195 -106 -175 -213 9 -51 76 -117 135 -133 107
-29 257 20 324 107 34 44 36 50 36 125 0 76 -1 79 -27 89 -28 11 -195 40 -223
38 -8 0 -40 -6 -70 -13z"/>
<path d="M1841 1875 c-63 -18 -131 -64 -175 -118 l-31 -39 -3 -148 c-3 -132
-1 -152 16 -187 35 -67 90 -121 157 -154 60 -29 71 -31 140 -27 68 5 82 9 132
44 107 75 170 231 145 360 -39 193 -213 316 -381 269z"/>
</g>
</svg>
